<svg width="161" height="56" viewBox="0 0 161 56" fill="none" xmlns="http://www.w3.org/2000/svg">
<path d="M37.3626 29.1707C36.6179 29.1707 35.8733 29.277 35.1286 29.4898C34.8094 29.5962 34.4902 29.7026 34.1711 29.8089C32.2561 30.66 30.6604 32.2557 29.9157 34.277C29.8093 34.4897 29.7029 34.8089 29.5965 35.0216C29.4901 35.6599 29.2773 36.4046 29.2773 37.1492V48.0001C29.3837 48.0001 29.4901 48.0001 29.5965 48.0001C29.7029 48.0001 29.9157 48.0001 30.022 48.0001C30.4476 47.8938 30.7667 47.8938 31.0859 47.7874C31.1923 47.7874 31.4051 47.7874 31.5114 47.7874H31.6178C31.937 47.681 32.2561 47.5746 32.5753 47.5746C32.6817 47.4682 32.8945 47.4682 33.0008 47.4682C33.32 47.3618 33.6392 47.2555 33.9583 47.1491C34.1711 47.1491 34.2775 47.0427 34.4902 47.0427C34.703 46.9363 34.9158 46.8299 35.1286 46.7236V39.4896L39.8095 44.1704C39.9159 44.1704 39.9159 44.1704 40.0223 44.064C40.2351 43.8513 40.5542 43.7449 40.767 43.5321C40.9798 43.3194 41.2989 43.1066 41.5117 42.8938C41.6181 42.7875 41.7245 42.6811 41.8308 42.5747C41.9372 42.4683 42.0436 42.3619 42.15 42.1492H42.2564C42.3628 42.0428 42.4692 41.9364 42.5755 41.83C42.6819 41.7236 42.7883 41.6173 42.8947 41.5109C43.0011 41.4045 43.1075 41.2981 43.2139 41.1917V41.0854C43.3202 40.979 43.4266 40.8726 43.533 40.7662C43.6394 40.6598 43.7458 40.5534 43.7458 40.4471H43.8522C43.8522 40.2343 43.9586 40.1279 44.0649 40.0215C44.1713 39.9152 44.1713 39.9152 44.2777 39.8088L39.384 35.0216H46.831C47.4693 33.2131 47.8948 31.1919 48.0012 29.1707H37.3626Z" fill="#0098DA"/>
<path d="M18.7449 29.1707C19.4896 29.1707 20.2343 29.277 20.979 29.4898C21.2982 29.5962 21.6174 29.7026 21.9365 29.8089C23.8515 30.66 25.4472 32.2557 26.1919 34.277C26.2983 34.4897 26.4047 34.8089 26.4047 35.0216C26.6175 35.6599 26.7239 36.4046 26.7239 37.1492V48.0001C26.7239 48.0001 26.6175 48.0001 26.5111 48.0001C26.4047 48.0001 26.1919 48.0001 26.0856 48.0001H25.9792C25.66 47.8938 25.3409 47.8938 25.0217 47.7874C24.8089 47.7874 24.7025 47.7874 24.4898 47.7874C24.1706 47.681 23.8515 47.681 23.5323 47.5746C23.4259 47.4682 23.2131 47.4682 23.1068 47.4682C22.7876 47.3618 22.4684 47.2555 22.1493 47.1491C21.9365 47.1491 21.8301 47.0427 21.6174 47.0427C21.4046 46.9363 21.1918 46.8299 20.979 46.7236V39.4896L16.2981 44.1704C16.1917 44.1704 16.0853 44.1704 16.0853 44.064C15.7661 43.8513 15.5534 43.7449 15.3406 43.5321C15.0214 43.3194 14.8087 43.1066 14.5959 42.8938C14.4895 42.7875 14.3831 42.6811 14.2767 42.5747C14.1704 42.4683 13.9576 42.3619 13.8512 42.2555V42.1492C13.7448 42.0428 13.6384 41.9364 13.5321 41.83C13.4257 41.7236 13.3193 41.6173 13.2129 41.5109C13.1065 41.4045 13.0001 41.2981 12.8937 41.1917V41.0854C12.7874 40.979 12.681 40.8726 12.5746 40.7662C12.4682 40.6598 12.3618 40.5534 12.2554 40.4471C12.149 40.2343 12.149 40.1279 12.0427 40.0215C11.9363 39.9152 11.9363 39.9152 11.8299 39.8088L16.7236 35.0216H9.27663C8.53193 33.2131 8.21277 31.1919 8 29.1707H18.7449Z" fill="#ED3237"/>
<path d="M37.3626 26.8295C36.6179 26.8295 35.8733 26.7231 35.1286 26.5103C34.8094 26.5103 34.4902 26.404 34.1711 26.1912C32.2561 25.3401 30.6604 23.7444 29.9157 21.8296C29.8093 21.5104 29.7029 21.2977 29.5965 21.0849C29.4901 20.3402 29.2773 19.5956 29.2773 18.8509V8C29.3837 8 29.4901 8 29.5965 8C29.7029 8.10638 29.9157 8.10638 30.022 8.10638C30.4476 8.10638 30.7667 8.21276 31.0859 8.21276C31.1923 8.21276 31.4051 8.31914 31.5114 8.31914H31.6178C31.937 8.31914 32.2561 8.42553 32.5753 8.53191C32.6817 8.53191 32.8945 8.53191 33.0008 8.63829C33.32 8.74467 33.6392 8.74467 33.9583 8.85105C34.1711 8.95743 34.2775 8.95743 34.4902 9.06381C34.703 9.17019 34.9158 9.17019 35.1286 9.27658V16.5105L39.8095 11.8297C39.9159 11.9361 39.9159 11.9361 40.0223 11.9361C40.2351 12.1489 40.5542 12.3616 40.767 12.5744C40.9798 12.7872 41.2989 12.9999 41.5117 13.2127C41.6181 13.3191 41.7245 13.4254 41.8308 13.5318C41.9372 13.6382 42.0436 13.7446 42.15 13.851H42.2564C42.3628 13.9574 42.4692 14.0637 42.5755 14.1701C42.6819 14.2765 42.7883 14.4893 42.8947 14.5956C43.0011 14.702 43.1075 14.8084 43.2139 14.9148C43.3202 15.0212 43.4266 15.1275 43.533 15.2339C43.6394 15.4467 43.7458 15.5531 43.7458 15.6595H43.8522C43.8522 15.7658 43.9586 15.8722 44.0649 15.9786V16.085C44.1713 16.085 44.1713 16.1914 44.2777 16.1914L39.384 21.0849H46.831C47.4693 22.8934 47.8948 24.8082 48.0012 26.8295H37.3626Z" fill="#FFCC29"/>
<path d="M18.7449 26.8295C19.4896 26.8295 20.2343 26.7231 20.979 26.5103C21.2982 26.5103 21.6174 26.2976 21.9365 26.1912C23.8515 25.3401 25.4472 23.7444 26.1919 21.8296C26.2983 21.5104 26.4047 21.2977 26.4047 21.0849C26.6175 20.3402 26.7239 19.5956 26.7239 18.8509V8C26.7239 8 26.6175 8 26.5111 8C26.4047 8.10638 26.1919 8.10638 26.0856 8.10638H25.9792C25.66 8.10638 25.3409 8.21276 25.0217 8.21276C24.8089 8.21276 24.7025 8.31914 24.4898 8.31914C24.1706 8.31914 23.8515 8.42553 23.5323 8.53191C23.4259 8.53191 23.2131 8.53191 23.1068 8.63829C22.7876 8.74467 22.4684 8.74467 22.1493 8.85105C21.9365 8.95743 21.8301 8.95743 21.6174 9.06381C21.4046 9.17019 21.1918 9.17019 20.979 9.27658V16.5105L16.2981 11.8297C16.1917 11.8297 16.0853 11.9361 16.0853 11.9361C15.7661 12.1489 15.5534 12.3616 15.3406 12.5744C15.0214 12.7872 14.8087 12.9999 14.5959 13.2127C14.4895 13.3191 14.3831 13.4254 14.2767 13.5318C14.1704 13.6382 13.9576 13.7446 13.8512 13.851C13.7448 13.9574 13.6384 14.0637 13.5321 14.1701C13.4257 14.2765 13.3193 14.3829 13.2129 14.5956C13.1065 14.702 13.0001 14.8084 12.8937 14.9148C12.7874 15.0212 12.681 15.1275 12.5746 15.2339C12.4682 15.4467 12.3618 15.5531 12.2554 15.6595C12.149 15.7658 12.149 15.8722 12.0427 15.9786V16.085C11.9363 16.085 11.9363 16.1914 11.8299 16.1914L16.7236 21.0849H9.27663C8.53193 22.8934 8.21277 24.8082 8 26.8295H18.7449Z" fill="#91D8F7"/>
<path fill-rule="evenodd" clip-rule="evenodd" d="M28.0004 25.2344C29.5962 25.2344 30.8728 26.5109 30.8728 28.0003C30.8728 29.596 29.5962 30.7662 28.0004 30.7662C26.511 30.7662 25.2344 29.596 25.2344 28.0003C25.2344 26.5109 26.511 25.2344 28.0004 25.2344Z" fill="#202022"/>
<path d="M56.002 23.3148C56.7791 24.1297 57.5562 24.673 58.5923 25.0804C59.4989 25.3521 60.4056 25.6237 61.3122 25.6237C63.9025 25.6237 66.2339 24.1297 66.2339 21.5492C66.2339 19.2403 64.9387 18.1537 61.4417 17.8821C60.4056 17.7463 59.6285 17.4746 59.2399 17.3388C58.7218 17.0672 58.5923 16.7956 58.5923 16.2523C58.5923 15.8448 58.7218 15.5732 59.1104 15.1657C59.4989 14.8941 60.1465 14.6225 60.9236 14.6225C62.2188 14.6225 63.255 15.0299 64.4206 16.2523L65.9748 14.4867C64.5501 13.1285 63.1254 12.5852 61.0532 12.5852C58.4628 12.5852 56.3905 14.0792 56.3905 16.3881C56.3905 18.5612 57.6857 19.6477 61.1827 20.0552C62.2188 20.191 62.9959 20.3268 63.3845 20.5985C63.773 20.7343 64.0321 21.1417 64.0321 21.685C64.0321 22.7715 62.9959 23.3148 61.4417 23.4506C59.8875 23.4506 58.4628 22.6357 57.4266 21.5492L56.002 23.3148ZM76.2067 15.9806H74.0049V21.1417C74.0049 22.3641 72.8393 23.3148 71.8031 23.3148C70.508 23.3148 69.6013 22.4999 69.6013 21.1417V15.9806H67.529V21.9566C67.529 23.7223 69.2128 25.3521 71.4146 25.3521C72.4507 25.3521 73.4869 24.9446 74.1345 24.1297V24.4014C74.1345 25.7595 73.0983 26.7103 71.5441 26.7103C70.508 26.7103 69.2128 26.4386 68.4357 25.7595L67.27 27.3893C68.3062 28.2042 69.9899 28.7475 71.5441 28.7475C74.1345 28.7475 76.2067 26.8461 76.2067 24.4014V15.9806ZM79.9628 19.7835C79.9628 18.5612 81.1284 17.7463 82.2941 17.7463C83.5893 17.7463 84.3664 18.5612 84.3664 19.9194V25.3521H86.5682V18.9686C86.5682 17.203 85.014 15.709 82.9417 15.709C81.776 15.709 80.6104 16.1165 79.8332 16.9314V15.9806H77.8905V25.3521H79.9628V19.7835ZM87.7338 20.5985C87.7338 23.4506 89.8061 25.6237 92.526 25.6237C94.2097 25.6237 95.8935 24.8088 96.8001 23.179L94.8573 22.2283C94.4688 22.9074 93.6917 23.5864 92.6555 23.5864C91.8784 23.5864 91.2308 23.3148 90.5832 22.6357C90.0652 22.0924 89.8061 21.4134 89.8061 20.5985C89.8061 19.7835 90.0652 19.1045 90.5832 18.5612C91.2308 18.0179 91.8784 17.7463 92.6555 17.7463C93.6917 17.7463 94.4688 18.2896 94.9868 19.1045L96.8001 17.8821C95.8935 16.6597 94.4688 15.709 92.526 15.709C89.8061 15.709 87.7338 17.7463 87.7338 20.5985ZM103.535 14.8941H107.55V12.8568H97.1886V14.8941H101.333V25.3521H103.535V14.8941ZM113.896 22.0924C113.378 22.9074 112.601 23.5864 111.306 23.5864C110.14 23.5864 108.975 22.7715 108.586 21.5492H115.71V20.7343C115.71 17.6105 113.767 15.709 111.047 15.709C108.457 15.709 106.255 17.7463 106.255 20.5985C106.255 23.9939 108.845 25.6237 111.306 25.6237C112.213 25.6237 112.99 25.3521 113.767 24.9446C114.544 24.5372 115.192 23.9939 115.58 23.3148L113.896 22.0924ZM111.177 17.7463C112.342 17.7463 113.378 18.5612 113.637 19.6477H108.586C108.845 18.5612 109.881 17.7463 111.177 17.7463ZM126.33 25.3521V15.9806H124.258V17.0672C123.481 16.1165 122.315 15.709 121.149 15.709C118.559 15.709 116.616 17.8821 116.616 20.5985C116.616 23.4506 118.559 25.6237 121.149 25.6237C122.445 25.6237 123.74 24.9446 124.387 23.9939V25.3521H126.33ZM124.258 20.5985C124.258 21.4134 123.999 22.0924 123.481 22.6357C122.963 23.3148 122.315 23.5864 121.538 23.5864C120.761 23.5864 120.113 23.3148 119.595 22.6357C119.077 22.0924 118.818 21.4134 118.818 20.5985C118.818 19.7835 119.077 19.1045 119.595 18.5612C120.113 18.0179 120.761 17.7463 121.538 17.7463C122.315 17.7463 122.963 18.0179 123.481 18.5612C123.999 19.1045 124.258 19.7835 124.258 20.5985ZM130.216 19.7835C130.216 19.2403 130.475 18.697 130.863 18.2896C131.381 17.8821 131.77 17.7463 132.418 17.7463C133.713 17.7463 134.49 18.5612 134.49 19.9194V25.3521H136.562V19.7835C136.562 19.2403 136.821 18.697 137.21 18.2896C137.728 17.8821 138.116 17.7463 138.764 17.7463C140.059 17.7463 140.836 18.5612 140.836 19.9194V25.3521H142.908V18.9686C142.908 18.2896 142.39 15.709 139.411 15.709C138.116 15.709 136.821 16.1165 136.044 17.203C135.526 16.3881 134.619 15.5732 133.065 15.709C131.899 15.709 130.863 16.1165 130.086 16.7956V15.9806H128.143V25.3521H130.216V19.7835ZM144.074 23.7223C144.333 24.1297 144.851 24.673 145.628 24.9446C146.276 25.3521 147.183 25.6237 148.348 25.6237C150.42 25.6237 152.104 24.2655 152.104 22.4999C152.104 21.5492 151.716 20.8701 151.198 20.4626C150.55 20.0552 149.643 19.7835 148.478 19.5119C146.664 19.2403 146.535 18.697 146.535 18.4254C146.535 18.0179 147.183 17.7463 147.96 17.7463C148.737 17.7463 149.773 18.0179 150.42 18.697L151.716 17.203C151.068 16.3881 149.773 15.709 148.089 15.709C146.146 15.709 144.463 16.5239 144.463 18.4254C144.463 20.0552 145.628 21.1417 148.219 21.5492C148.866 21.685 149.384 21.8208 149.643 21.9566C149.773 22.0924 149.902 22.2283 149.902 22.4999C149.902 23.0432 149.384 23.5864 148.348 23.5864C147.053 23.5864 146.276 23.0432 145.499 22.2283L144.074 23.7223Z" fill="#202022"/>
<path d="M56.0527 40.9703C56.8298 41.7852 57.6069 42.3285 58.6431 42.7359C59.5497 43.0076 60.4563 43.2792 61.363 43.2792C63.9533 43.2792 66.2846 41.7852 66.2846 39.2047C66.2846 36.8958 64.9895 35.8092 61.4925 35.4018C60.4563 35.4018 59.6792 35.1301 59.2907 34.9943C58.7726 34.7227 58.6431 34.4511 58.6431 33.9078C58.6431 33.5003 58.7726 33.2287 59.1612 32.8212C59.5497 32.5496 60.1973 32.278 60.9744 32.278C62.2696 32.278 63.3057 32.6854 64.4714 33.9078L66.0256 32.1422C64.6009 30.784 63.1762 30.2407 61.1039 30.2407C58.5136 30.2407 56.4413 31.7347 56.4413 34.0436C56.4413 36.2167 57.7365 37.3032 61.2334 37.7107C62.2696 37.8465 63.0467 37.9823 63.4353 38.254C63.8238 38.3898 64.0828 38.7972 64.0828 39.3405C64.0828 40.427 63.0467 40.9703 61.4925 41.1061C59.9383 41.1061 58.5136 40.2912 57.4774 39.2047L56.0527 40.9703ZM67.8389 35.6734V39.4763C67.8389 41.3778 69.134 42.1927 70.2997 42.8718L70.9473 43.2792L71.9834 41.3778L71.2063 40.9703C70.4292 40.427 69.9111 40.1554 69.9111 39.0689V35.6734H71.7244V33.6361H69.9111V30.784L67.8389 31.5989V33.6361H66.9322V35.6734H67.8389ZM72.7605 39.2047C72.7605 40.427 73.1491 41.5136 73.9262 42.1927C74.5738 43.0076 75.7395 43.415 77.0346 43.415C78.4593 43.415 79.4955 43.0076 80.2726 42.1927C80.9202 41.5136 81.3087 40.5629 81.3087 39.3405V33.6361H79.2364V39.0689C79.2364 40.427 78.3298 41.2419 77.0346 41.2419C75.7395 41.2419 74.8328 40.427 74.8328 39.0689V33.6361H72.7605V39.2047ZM92.3177 43.0076V29.8333H90.2455V34.8585C89.4683 33.9078 88.3027 33.3645 87.137 33.3645C84.5467 33.3645 82.6039 35.5376 82.6039 38.254C82.6039 41.1061 84.5467 43.2792 87.0075 43.2792C88.4322 43.2792 89.7274 42.6001 90.375 41.6494V43.0076H92.3177ZM90.1159 38.254C90.1159 39.0689 89.8569 39.7479 89.4683 40.2912C88.9503 40.9703 88.3027 41.2419 87.5256 41.2419C86.7485 41.2419 86.1009 40.9703 85.5828 40.2912C84.9352 39.7479 84.6762 39.0689 84.6762 38.254C84.6762 37.439 84.9352 36.76 85.5828 36.2167C86.1009 35.6734 86.7485 35.4018 87.5256 35.4018C88.3027 35.4018 88.9503 35.6734 89.4683 36.2167C89.8569 36.76 90.1159 37.439 90.1159 38.254ZM95.1671 29.9691C94.2605 29.9691 93.872 30.6482 93.872 31.3272C93.872 32.0063 94.2605 32.6854 95.1671 32.6854C96.0738 32.6854 96.4623 32.0063 96.4623 31.3272C96.4623 30.6482 96.0738 29.9691 95.1671 29.9691ZM96.2033 43.0076V33.6361H94.131V43.0076H96.2033ZM97.4985 38.254C97.4985 41.1061 99.5707 43.2792 102.291 43.2792C105.14 43.2792 107.212 41.1061 107.212 38.254C107.212 35.4018 105.14 33.3645 102.291 33.3645C99.5707 33.3645 97.4985 35.4018 97.4985 38.254ZM105.14 38.254C105.14 39.0689 104.881 39.7479 104.233 40.2912C103.715 40.9703 103.068 41.2419 102.291 41.2419C101.514 41.2419 100.866 40.9703 100.348 40.2912C99.8298 39.7479 99.5707 39.0689 99.5707 38.254C99.5707 37.439 99.8298 36.76 100.348 36.2167C100.866 35.6734 101.514 35.4018 102.291 35.4018C103.068 35.4018 103.715 35.6734 104.233 36.2167C104.881 36.76 105.14 37.439 105.14 38.254Z" fill="#0098DA"/>
</svg>
