<svg width="283" height="100" viewBox="0 0 283 100" fill="none" xmlns="http://www.w3.org/2000/svg">
<g clip-path="url(#clip0_6864_38341)">
<path d="M0 8C0 3.58172 3.58172 0 8 0H275C279.418 0 283 3.58172 283 8V92C283 96.4183 279.418 100 275 100H8.00001C3.58173 100 0 96.4183 0 92V8Z" fill="white"/>
<path d="M283 0H0V99.0099L283 0Z" stroke="#D1D1D1"/>
<path d="M0 100H283V0.990089L0 100Z" fill="#202022" stroke="#D1D1D1"/>
<path d="M92.788 55.224C91.9947 55.224 91.304 55.0793 90.716 54.79C90.1373 54.5007 89.68 54.0993 89.344 53.586C89.008 53.0727 88.812 52.4753 88.756 51.794L90.31 51.696C90.3753 52.1627 90.5107 52.5593 90.716 52.886C90.9213 53.2033 91.1967 53.446 91.542 53.614C91.8967 53.7727 92.3213 53.852 92.816 53.852C93.2453 53.852 93.6093 53.8007 93.908 53.698C94.216 53.586 94.4493 53.4227 94.608 53.208C94.7667 52.9933 94.846 52.732 94.846 52.424C94.846 52.144 94.776 51.8967 94.636 51.682C94.5053 51.458 94.2487 51.2573 93.866 51.08C93.4927 50.8933 92.942 50.7113 92.214 50.534C91.4207 50.338 90.786 50.1233 90.31 49.89C89.834 49.6567 89.4887 49.3673 89.274 49.022C89.0687 48.6673 88.966 48.2333 88.966 47.72C88.966 47.1507 89.1013 46.6513 89.372 46.222C89.652 45.7833 90.0487 45.4427 90.562 45.2C91.0753 44.9573 91.6913 44.836 92.41 44.836C93.166 44.836 93.81 44.976 94.342 45.256C94.8833 45.536 95.308 45.9187 95.616 46.404C95.9333 46.8893 96.1293 47.4447 96.204 48.07L94.65 48.154C94.6033 47.7713 94.4867 47.4353 94.3 47.146C94.1133 46.8473 93.8613 46.6187 93.544 46.46C93.2267 46.292 92.8393 46.208 92.382 46.208C91.8033 46.208 91.346 46.3433 91.01 46.614C90.6833 46.8753 90.52 47.2253 90.52 47.664C90.52 47.944 90.5853 48.182 90.716 48.378C90.856 48.5647 91.0987 48.728 91.444 48.868C91.7987 49.008 92.298 49.1573 92.942 49.316C93.8007 49.512 94.482 49.7547 94.986 50.044C95.4993 50.324 95.8633 50.6553 96.078 51.038C96.2927 51.4207 96.4 51.8547 96.4 52.34C96.4 52.928 96.246 53.4413 95.938 53.88C95.6393 54.3093 95.2193 54.6407 94.678 54.874C94.1367 55.1073 93.5067 55.224 92.788 55.224ZM98.3977 57.1V55.882H99.3077C99.5597 55.882 99.7464 55.8447 99.8677 55.77C99.9891 55.6953 100.082 55.5693 100.148 55.392L100.386 54.776H99.9237L97.2357 47.552H98.8037L100.848 53.404L102.794 47.552H104.376L101.408 55.868C101.258 56.2973 101.034 56.61 100.736 56.806C100.446 57.002 100.04 57.1 99.5177 57.1H98.3977ZM108.203 55.168C107.503 55.168 106.911 55.0607 106.425 54.846C105.949 54.6313 105.581 54.3373 105.319 53.964C105.058 53.5813 104.909 53.1427 104.871 52.648L106.397 52.578C106.472 52.9887 106.649 53.3153 106.929 53.558C107.209 53.8007 107.634 53.922 108.203 53.922C108.67 53.922 109.039 53.8473 109.309 53.698C109.58 53.5487 109.715 53.3107 109.715 52.984C109.715 52.8067 109.669 52.6573 109.575 52.536C109.491 52.4053 109.323 52.298 109.071 52.214C108.819 52.1207 108.446 52.032 107.951 51.948C107.214 51.808 106.635 51.6447 106.215 51.458C105.795 51.2713 105.497 51.0333 105.319 50.744C105.142 50.4547 105.053 50.1047 105.053 49.694C105.053 49.0127 105.305 48.4573 105.809 48.028C106.323 47.5987 107.06 47.384 108.021 47.384C108.665 47.384 109.207 47.496 109.645 47.72C110.084 47.9347 110.425 48.2287 110.667 48.602C110.919 48.966 111.078 49.3767 111.143 49.834L109.617 49.918C109.571 49.6567 109.477 49.4327 109.337 49.246C109.207 49.05 109.029 48.9007 108.805 48.798C108.581 48.686 108.315 48.63 108.007 48.63C107.531 48.63 107.177 48.7233 106.943 48.91C106.71 49.0967 106.593 49.3393 106.593 49.638C106.593 49.862 106.645 50.044 106.747 50.184C106.859 50.324 107.037 50.4407 107.279 50.534C107.522 50.618 107.844 50.6927 108.245 50.758C109.02 50.8887 109.627 51.052 110.065 51.248C110.504 51.4347 110.812 51.668 110.989 51.948C111.167 52.228 111.255 52.5687 111.255 52.97C111.255 53.4367 111.125 53.8333 110.863 54.16C110.602 54.4867 110.243 54.7387 109.785 54.916C109.328 55.084 108.801 55.168 108.203 55.168ZM115.34 55C114.63 55 114.108 54.8367 113.772 54.51C113.436 54.1833 113.268 53.6747 113.268 52.984V45.802H114.752V52.872C114.752 53.2173 114.826 53.4553 114.976 53.586C115.125 53.7167 115.354 53.782 115.662 53.782H116.726V55H115.34ZM112.134 48.77V47.552H116.726V48.77H112.134ZM121.087 55.168C120.359 55.168 119.729 55.0093 119.197 54.692C118.674 54.3747 118.268 53.922 117.979 53.334C117.699 52.746 117.559 52.06 117.559 51.276C117.559 50.492 117.699 49.8107 117.979 49.232C118.268 48.644 118.674 48.1913 119.197 47.874C119.719 47.5473 120.335 47.384 121.045 47.384C121.717 47.384 122.309 47.5427 122.823 47.86C123.336 48.168 123.733 48.616 124.013 49.204C124.302 49.792 124.447 50.5013 124.447 51.332V51.71H119.099C119.136 52.438 119.327 52.984 119.673 53.348C120.027 53.712 120.503 53.894 121.101 53.894C121.539 53.894 121.903 53.7913 122.193 53.586C122.482 53.3807 122.683 53.1053 122.795 52.76L124.335 52.858C124.139 53.5487 123.751 54.1087 123.173 54.538C122.603 54.958 121.908 55.168 121.087 55.168ZM119.099 50.59H122.879C122.832 49.9273 122.641 49.4373 122.305 49.12C121.978 48.8027 121.558 48.644 121.045 48.644C120.513 48.644 120.074 48.812 119.729 49.148C119.393 49.4747 119.183 49.9553 119.099 50.59ZM125.95 55V47.552H127.308L127.35 49.4L127.182 49.344C127.266 48.9333 127.411 48.5833 127.616 48.294C127.831 48.0047 128.092 47.7807 128.4 47.622C128.708 47.4633 129.044 47.384 129.408 47.384C130.043 47.384 130.561 47.566 130.962 47.93C131.364 48.2847 131.616 48.7747 131.718 49.4H131.48C131.564 48.9613 131.704 48.5973 131.9 48.308C132.106 48.0093 132.367 47.7807 132.684 47.622C133.002 47.4633 133.361 47.384 133.762 47.384C134.285 47.384 134.728 47.496 135.092 47.72C135.466 47.9347 135.746 48.252 135.932 48.672C136.128 49.092 136.226 49.6053 136.226 50.212V55H134.742V50.576C134.742 49.932 134.626 49.4467 134.392 49.12C134.159 48.7933 133.804 48.63 133.328 48.63C133.02 48.63 132.75 48.7093 132.516 48.868C132.283 49.0267 132.101 49.2553 131.97 49.554C131.849 49.8527 131.788 50.212 131.788 50.632V55H130.374V50.632C130.374 49.9973 130.267 49.5073 130.052 49.162C129.847 48.8073 129.492 48.63 128.988 48.63C128.671 48.63 128.396 48.7093 128.162 48.868C127.938 49.0267 127.761 49.26 127.63 49.568C127.5 49.8667 127.434 50.2213 127.434 50.632V55H125.95Z" fill="#202022"/>
<path d="M145.479 55.224C144.686 55.224 143.995 55.0793 143.407 54.79C142.829 54.5007 142.371 54.0993 142.035 53.586C141.699 53.0727 141.503 52.4753 141.447 51.794L143.001 51.696C143.067 52.1627 143.202 52.5593 143.407 52.886C143.613 53.2033 143.888 53.446 144.233 53.614C144.588 53.7727 145.013 53.852 145.507 53.852C145.937 53.852 146.301 53.8007 146.599 53.698C146.907 53.586 147.141 53.4227 147.299 53.208C147.458 52.9933 147.537 52.732 147.537 52.424C147.537 52.144 147.467 51.8967 147.327 51.682C147.197 51.458 146.94 51.2573 146.557 51.08C146.184 50.8933 145.633 50.7113 144.905 50.534C144.112 50.338 143.477 50.1233 143.001 49.89C142.525 49.6567 142.18 49.3673 141.965 49.022C141.76 48.6673 141.657 48.2333 141.657 47.72C141.657 47.1507 141.793 46.6513 142.063 46.222C142.343 45.7833 142.74 45.4427 143.253 45.2C143.767 44.9573 144.383 44.836 145.101 44.836C145.857 44.836 146.501 44.976 147.033 45.256C147.575 45.536 147.999 45.9187 148.307 46.404C148.625 46.8893 148.821 47.4447 148.895 48.07L147.341 48.154C147.295 47.7713 147.178 47.4353 146.991 47.146C146.805 46.8473 146.553 46.6187 146.235 46.46C145.918 46.292 145.531 46.208 145.073 46.208C144.495 46.208 144.037 46.3433 143.701 46.614C143.375 46.8753 143.211 47.2253 143.211 47.664C143.211 47.944 143.277 48.182 143.407 48.378C143.547 48.5647 143.79 48.728 144.135 48.868C144.49 49.008 144.989 49.1573 145.633 49.316C146.492 49.512 147.173 49.7547 147.677 50.044C148.191 50.324 148.555 50.6553 148.769 51.038C148.984 51.4207 149.091 51.8547 149.091 52.34C149.091 52.928 148.937 53.4413 148.629 53.88C148.331 54.3093 147.911 54.6407 147.369 54.874C146.828 55.1073 146.198 55.224 145.479 55.224ZM154.132 55.168C153.404 55.168 152.774 55.0093 152.242 54.692C151.719 54.3747 151.313 53.922 151.024 53.334C150.744 52.746 150.604 52.06 150.604 51.276C150.604 50.492 150.744 49.8107 151.024 49.232C151.313 48.644 151.719 48.1913 152.242 47.874C152.764 47.5473 153.38 47.384 154.09 47.384C154.762 47.384 155.354 47.5427 155.868 47.86C156.381 48.168 156.778 48.616 157.058 49.204C157.347 49.792 157.492 50.5013 157.492 51.332V51.71H152.144C152.181 52.438 152.372 52.984 152.718 53.348C153.072 53.712 153.548 53.894 154.146 53.894C154.584 53.894 154.948 53.7913 155.238 53.586C155.527 53.3807 155.728 53.1053 155.84 52.76L157.38 52.858C157.184 53.5487 156.796 54.1087 156.218 54.538C155.648 54.958 154.953 55.168 154.132 55.168ZM152.144 50.59H155.924C155.877 49.9273 155.686 49.4373 155.35 49.12C155.023 48.8027 154.603 48.644 154.09 48.644C153.558 48.644 153.119 48.812 152.774 49.148C152.438 49.4747 152.228 49.9553 152.144 50.59ZM161.578 55C160.869 55 160.346 54.8367 160.01 54.51C159.674 54.1833 159.506 53.6747 159.506 52.984V45.802H160.99V52.872C160.99 53.2173 161.065 53.4553 161.214 53.586C161.363 53.7167 161.592 53.782 161.9 53.782H162.964V55H161.578ZM158.372 48.77V47.552H162.964V48.77H158.372ZM166.1 55C165.391 55 164.868 54.8367 164.532 54.51C164.196 54.1833 164.028 53.6747 164.028 52.984V45.802H165.512V52.872C165.512 53.2173 165.587 53.4553 165.736 53.586C165.885 53.7167 166.114 53.782 166.422 53.782H167.486V55H166.1ZM162.894 48.77V47.552H167.486V48.77H162.894ZM168.894 55V47.552H170.378V55H168.894ZM168.866 46.474V44.99H170.406V46.474H168.866ZM172.599 55V47.552H173.957L174.013 49.54L173.831 49.442C173.915 48.9567 174.073 48.5647 174.307 48.266C174.54 47.9673 174.825 47.748 175.161 47.608C175.497 47.4587 175.861 47.384 176.253 47.384C176.813 47.384 177.275 47.51 177.639 47.762C178.012 48.0047 178.292 48.3407 178.479 48.77C178.675 49.19 178.773 49.6707 178.773 50.212V55H177.289V50.66C177.289 50.2213 177.242 49.8527 177.149 49.554C177.055 49.2553 176.901 49.0267 176.687 48.868C176.472 48.7093 176.192 48.63 175.847 48.63C175.324 48.63 174.899 48.8027 174.573 49.148C174.246 49.4933 174.083 49.9973 174.083 50.66V55H172.599ZM183.702 57.268C183.114 57.268 182.596 57.1793 182.148 57.002C181.7 56.8247 181.332 56.5727 181.042 56.246C180.753 55.9287 180.557 55.5553 180.454 55.126L181.994 55.028C182.097 55.336 182.274 55.5787 182.526 55.756C182.788 55.9427 183.18 56.036 183.702 56.036C184.318 56.036 184.79 55.9053 185.116 55.644C185.452 55.3827 185.62 54.986 185.62 54.454V53.376C185.443 53.7587 185.158 54.062 184.766 54.286C184.374 54.51 183.936 54.622 183.45 54.622C182.825 54.622 182.27 54.468 181.784 54.16C181.299 53.852 180.921 53.4273 180.65 52.886C180.38 52.3447 180.244 51.7193 180.244 51.01C180.244 50.2913 180.375 49.6613 180.636 49.12C180.907 48.5787 181.28 48.154 181.756 47.846C182.242 47.538 182.788 47.384 183.394 47.384C183.926 47.384 184.393 47.5053 184.794 47.748C185.205 47.9907 185.499 48.3173 185.676 48.728V47.552H187.104V54.412C187.104 55.028 186.964 55.546 186.684 55.966C186.414 56.3953 186.022 56.7173 185.508 56.932C185.004 57.156 184.402 57.268 183.702 57.268ZM183.688 53.362C184.267 53.362 184.729 53.152 185.074 52.732C185.429 52.312 185.611 51.7333 185.62 50.996C185.63 50.5107 185.555 50.0953 185.396 49.75C185.238 49.3953 185.009 49.1247 184.71 48.938C184.421 48.742 184.08 48.644 183.688 48.644C183.082 48.644 182.61 48.8587 182.274 49.288C181.948 49.708 181.784 50.2773 181.784 50.996C181.784 51.724 181.952 52.3027 182.288 52.732C182.634 53.152 183.1 53.362 183.688 53.362ZM191.943 55.168C191.243 55.168 190.651 55.0607 190.165 54.846C189.689 54.6313 189.321 54.3373 189.059 53.964C188.798 53.5813 188.649 53.1427 188.611 52.648L190.137 52.578C190.212 52.9887 190.389 53.3153 190.669 53.558C190.949 53.8007 191.374 53.922 191.943 53.922C192.41 53.922 192.779 53.8473 193.049 53.698C193.32 53.5487 193.455 53.3107 193.455 52.984C193.455 52.8067 193.409 52.6573 193.315 52.536C193.231 52.4053 193.063 52.298 192.811 52.214C192.559 52.1207 192.186 52.032 191.691 51.948C190.954 51.808 190.375 51.6447 189.955 51.458C189.535 51.2713 189.237 51.0333 189.059 50.744C188.882 50.4547 188.793 50.1047 188.793 49.694C188.793 49.0127 189.045 48.4573 189.549 48.028C190.063 47.5987 190.8 47.384 191.761 47.384C192.405 47.384 192.947 47.496 193.385 47.72C193.824 47.9347 194.165 48.2287 194.407 48.602C194.659 48.966 194.818 49.3767 194.883 49.834L193.357 49.918C193.311 49.6567 193.217 49.4327 193.077 49.246C192.947 49.05 192.769 48.9007 192.545 48.798C192.321 48.686 192.055 48.63 191.747 48.63C191.271 48.63 190.917 48.7233 190.683 48.91C190.45 49.0967 190.333 49.3393 190.333 49.638C190.333 49.862 190.385 50.044 190.487 50.184C190.599 50.324 190.777 50.4407 191.019 50.534C191.262 50.618 191.584 50.6927 191.985 50.758C192.76 50.8887 193.367 51.052 193.805 51.248C194.244 51.4347 194.552 51.668 194.729 51.948C194.907 52.228 194.995 52.5687 194.995 52.97C194.995 53.4367 194.865 53.8333 194.603 54.16C194.342 54.4867 193.983 54.7387 193.525 54.916C193.068 55.084 192.541 55.168 191.943 55.168Z" fill="white"/>
</g>
<path d="M8 0.5H275C279.142 0.5 282.5 3.85786 282.5 8V92C282.5 96.1421 279.142 99.5 275 99.5H8C3.85787 99.5 0.5 96.1421 0.5 92V8C0.5 3.85786 3.85786 0.5 8 0.5Z" stroke="#D1D1D1" stroke-opacity="0.5"/>
<defs>
<clipPath id="clip0_6864_38341">
<path d="M0 8C0 3.58172 3.58172 0 8 0H275C279.418 0 283 3.58172 283 8V92C283 96.4183 279.418 100 275 100H8.00001C3.58173 100 0 96.4183 0 92V8Z" fill="white"/>
</clipPath>
</defs>
</svg>
